<svg xmlns="http://www.w3.org/2000/svg" viewBox="0 0 800 400" font-family="system-ui, sans-serif" font-size="12">
  <rect width="800" height="400" fill="white"/>
  <text x="400.0" y="20" text-anchor="middle" font-size="14" font-weight="bold">Pipeline Batching: Avg ops/s Across Languages</text>
  <line x1="80" y1="320.0" x2="770" y2="320.0" stroke="#e5e7eb" stroke-width="1"/>
  <text x="72" y="324.0" text-anchor="end" font-size="11" fill="#6b7280">0</text>
  <line x1="80" y1="264.0" x2="770" y2="264.0" stroke="#e5e7eb" stroke-width="1"/>
  <text x="72" y="268.0" text-anchor="end" font-size="11" fill="#6b7280">4K</text>
  <line x1="80" y1="208.0" x2="770" y2="208.0" stroke="#e5e7eb" stroke-width="1"/>
  <text x="72" y="212.0" text-anchor="end" font-size="11" fill="#6b7280">7K</text>
  <line x1="80" y1="152.0" x2="770" y2="152.0" stroke="#e5e7eb" stroke-width="1"/>
  <text x="72" y="156.0" text-anchor="end" font-size="11" fill="#6b7280">11K</text>
  <line x1="80" y1="96.0" x2="770" y2="96.0" stroke="#e5e7eb" stroke-width="1"/>
  <text x="72" y="100.0" text-anchor="end" font-size="11" fill="#6b7280">15K</text>
  <line x1="80" y1="40.0" x2="770" y2="40.0" stroke="#e5e7eb" stroke-width="1"/>
  <text x="72" y="44.0" text-anchor="end" font-size="11" fill="#6b7280">18K</text>
  <rect x="103.0" y="243.49765886830426" width="36.800000000000004" height="76.50234113169576" fill="#6b7280" rx="2"/>
  <rect x="149.0" y="85.6279128898843" width="36.800000000000004" height="234.3720871101157" fill="#3b82f6" rx="2"/>
  <rect x="195.0" y="70.16854525241212" width="36.800000000000004" height="249.83145474758788" fill="#10b981" rx="2"/>
  <rect x="241.0" y="69.39298282629105" width="36.800000000000004" height="250.60701717370895" fill="#f59e0b" rx="2"/>
  <text x="195.0" y="340" text-anchor="middle" font-size="11">find one by id</text>
  <rect x="333.0" y="280.41791432350624" width="36.800000000000004" height="39.58208567649373" fill="#6b7280" rx="2"/>
  <rect x="379.0" y="213.9781927166595" width="36.800000000000004" height="106.02180728334051" fill="#3b82f6" rx="2"/>
  <rect x="425.0" y="207.50860849407482" width="36.800000000000004" height="112.49139150592518" fill="#10b981" rx="2"/>
  <rect x="471.0" y="205.77533250561953" width="36.800000000000004" height="114.22466749438047" fill="#f59e0b" rx="2"/>
  <text x="425.0" y="340" text-anchor="middle" font-size="11">insert one small</text>
  <rect x="563.0" y="236.49904109626095" width="36.800000000000004" height="83.50095890373905" fill="#6b7280" rx="2"/>
  <rect x="609.0" y="64.9997700794984" width="36.800000000000004" height="255.0002299205016" fill="#3b82f6" rx="2"/>
  <rect x="655.0" y="43.340068651556805" width="36.800000000000004" height="276.6599313484432" fill="#10b981" rx="2"/>
  <rect x="701.0" y="40.0" width="36.800000000000004" height="280.0" fill="#f59e0b" rx="2"/>
  <text x="655.0" y="340" text-anchor="middle" font-size="11">run command</text>
  <rect x="90" y="365" width="12" height="12" fill="#6b7280" rx="2"/>
  <text x="106" y="375" font-size="11" fill="#374151">Native (single call)</text>
  <rect x="260" y="365" width="12" height="12" fill="#3b82f6" rx="2"/>
  <text x="276" y="375" font-size="11" fill="#374151">Batch 100</text>
  <rect x="430" y="365" width="12" height="12" fill="#10b981" rx="2"/>
  <text x="446" y="375" font-size="11" fill="#374151">Batch 1,000</text>
  <rect x="600" y="365" width="12" height="12" fill="#f59e0b" rx="2"/>
  <text x="616" y="375" font-size="11" fill="#374151">Batch 10,000</text>
</svg>